<mxfile host="app.diagrams.net" agent="Mozilla/5.0 (Windows NT 10.0; Win64; x64) AppleWebKit/537.36 (KHTML, like Gecko) Chrome/140.0.0.0 Safari/537.36" version="28.2.5">
  <diagram name="Page-1" id="mOnyxIeTB5nBIqmfMcBU">
    <mxGraphModel dx="1040" dy="1656" grid="1" gridSize="10" guides="1" tooltips="1" connect="1" arrows="1" fold="1" page="1" pageScale="1" pageWidth="850" pageHeight="1100" math="0" shadow="0">
      <root>
        <mxCell id="0" />
        <mxCell id="1" parent="0" />
        <mxCell id="U8Ca9pJKF0oo1DT3x82Q-63" value="has&amp;nbsp;" style="html=1;verticalAlign=bottom;endArrow=block;curved=0;rounded=0;entryX=0.796;entryY=1.04;entryDx=0;entryDy=0;entryPerimeter=0;" edge="1" parent="1" target="U8Ca9pJKF0oo1DT3x82Q-54">
          <mxGeometry x="0.3859" y="-8" width="80" relative="1" as="geometry">
            <mxPoint x="870" y="-690" as="sourcePoint" />
            <mxPoint x="829" y="-960" as="targetPoint" />
            <Array as="points" />
            <mxPoint y="-1" as="offset" />
          </mxGeometry>
        </mxCell>
        <mxCell id="U8Ca9pJKF0oo1DT3x82Q-15" value="Doctor" style="swimlane;fontStyle=1;align=center;verticalAlign=top;childLayout=stackLayout;horizontal=1;startSize=26;horizontalStack=0;resizeParent=1;resizeParentMax=0;resizeLast=0;collapsible=1;marginBottom=0;whiteSpace=wrap;html=1;" vertex="1" parent="1">
          <mxGeometry x="30" y="-690" width="270" height="232" as="geometry" />
        </mxCell>
        <object label="+ name: String&lt;div&gt;+ department: String&lt;/div&gt;&lt;div&gt;+ contact: String&lt;/div&gt;&lt;div&gt;+ status: boolean&lt;/div&gt;&lt;div&gt;+ appointnments: list&lt;/div&gt;&lt;div&gt;&lt;u&gt;+ listOfPatients: array&lt;/u&gt;&lt;/div&gt;&lt;div&gt;&lt;u style=&quot;color: light-dark(rgb(0, 0, 0), rgb(255, 255, 255)); background-color: transparent;&quot;&gt;+ listOfDoctors: array&lt;/u&gt;&lt;u&gt;&lt;/u&gt;&lt;/div&gt;&lt;div&gt;&lt;br&gt;&lt;/div&gt;" id="U8Ca9pJKF0oo1DT3x82Q-12">
          <mxCell style="text;strokeColor=none;fillColor=none;align=left;verticalAlign=top;spacingLeft=4;spacingRight=4;overflow=hidden;rotatable=0;points=[[0,0.5],[1,0.5]];portConstraint=eastwest;whiteSpace=wrap;html=1;" vertex="1" parent="U8Ca9pJKF0oo1DT3x82Q-15">
            <mxGeometry y="26" width="270" height="114" as="geometry" />
          </mxCell>
        </object>
        <mxCell id="U8Ca9pJKF0oo1DT3x82Q-17" value="" style="line;strokeWidth=1;fillColor=none;align=left;verticalAlign=middle;spacingTop=-1;spacingLeft=3;spacingRight=3;rotatable=0;labelPosition=right;points=[];portConstraint=eastwest;strokeColor=inherit;" vertex="1" parent="U8Ca9pJKF0oo1DT3x82Q-15">
          <mxGeometry y="140" width="270" height="10" as="geometry" />
        </mxCell>
        <mxCell id="U8Ca9pJKF0oo1DT3x82Q-14" value="&lt;div&gt;+ Doctor&lt;span style=&quot;background-color: transparent;&quot;&gt;(name: String, department: String, Contact: String ): void&lt;/span&gt;&lt;/div&gt;&lt;div&gt;&lt;span style=&quot;background-color: transparent;&quot;&gt;+ view(): object&lt;/span&gt;&lt;/div&gt;&lt;div&gt;&lt;span style=&quot;background-color: transparent;&quot;&gt;+ isAvailable(): boolean&lt;/span&gt;&lt;/div&gt;&lt;div&gt;&lt;span style=&quot;background-color: transparent;&quot;&gt;&lt;br&gt;&lt;/span&gt;&lt;/div&gt;&lt;div&gt;&lt;span style=&quot;background-color: transparent;&quot;&gt;&lt;br&gt;&lt;/span&gt;&lt;/div&gt;&lt;div&gt;&lt;span style=&quot;background-color: transparent; color: light-dark(rgb(0, 0, 0), rgb(255, 255, 255));&quot;&gt;&lt;br&gt;&lt;/span&gt;&lt;/div&gt;" style="text;strokeColor=none;fillColor=none;align=left;verticalAlign=top;spacingLeft=4;spacingRight=4;overflow=hidden;rotatable=0;points=[[0,0.5],[1,0.5]];portConstraint=eastwest;whiteSpace=wrap;html=1;" vertex="1" parent="U8Ca9pJKF0oo1DT3x82Q-15">
          <mxGeometry y="150" width="270" height="82" as="geometry" />
        </mxCell>
        <mxCell id="U8Ca9pJKF0oo1DT3x82Q-19" value="Appointment" style="swimlane;fontStyle=1;align=center;verticalAlign=top;childLayout=stackLayout;horizontal=1;startSize=26;horizontalStack=0;resizeParent=1;resizeParentMax=0;resizeLast=0;collapsible=1;marginBottom=0;whiteSpace=wrap;html=1;" vertex="1" parent="1">
          <mxGeometry x="425" y="-690" width="250" height="180" as="geometry" />
        </mxCell>
        <mxCell id="U8Ca9pJKF0oo1DT3x82Q-20" value="+ appointmentDateTime: Date&lt;div&gt;&lt;br&gt;&lt;/div&gt;&lt;div&gt;&lt;br&gt;&lt;/div&gt;" style="text;strokeColor=none;fillColor=none;align=left;verticalAlign=top;spacingLeft=4;spacingRight=4;overflow=hidden;rotatable=0;points=[[0,0.5],[1,0.5]];portConstraint=eastwest;whiteSpace=wrap;html=1;" vertex="1" parent="U8Ca9pJKF0oo1DT3x82Q-19">
          <mxGeometry y="26" width="250" height="54" as="geometry" />
        </mxCell>
        <mxCell id="U8Ca9pJKF0oo1DT3x82Q-21" value="" style="line;strokeWidth=1;fillColor=none;align=left;verticalAlign=middle;spacingTop=-1;spacingLeft=3;spacingRight=3;rotatable=0;labelPosition=right;points=[];portConstraint=eastwest;strokeColor=inherit;" vertex="1" parent="U8Ca9pJKF0oo1DT3x82Q-19">
          <mxGeometry y="80" width="250" height="8" as="geometry" />
        </mxCell>
        <mxCell id="U8Ca9pJKF0oo1DT3x82Q-22" value="&lt;div&gt;+ Appointment(year: String, month:String, day:String, hour:String, minutes:String, seconds:String ): Date&lt;/div&gt;+ getAppointmentDate( ): Date&lt;div&gt;+ g&lt;span style=&quot;background-color: transparent; color: light-dark(rgb(0, 0, 0), rgb(255, 255, 255));&quot;&gt;etAppointmentTime(&lt;/span&gt;&lt;span style=&quot;background-color: transparent; color: light-dark(rgb(0, 0, 0), rgb(255, 255, 255));&quot;&gt;&amp;nbsp;): Date&lt;/span&gt;&lt;/div&gt;" style="text;strokeColor=none;fillColor=none;align=left;verticalAlign=top;spacingLeft=4;spacingRight=4;overflow=hidden;rotatable=0;points=[[0,0.5],[1,0.5]];portConstraint=eastwest;whiteSpace=wrap;html=1;" vertex="1" parent="U8Ca9pJKF0oo1DT3x82Q-19">
          <mxGeometry y="88" width="250" height="92" as="geometry" />
        </mxCell>
        <mxCell id="U8Ca9pJKF0oo1DT3x82Q-23" value="" style="shape=table;startSize=0;container=1;collapsible=1;childLayout=tableLayout;fixedRows=1;rowLines=0;fontStyle=0;align=center;resizeLast=1;strokeColor=none;fillColor=none;collapsible=0;" vertex="1" parent="1">
          <mxGeometry x="300" y="-616" width="160" height="20" as="geometry" />
        </mxCell>
        <mxCell id="U8Ca9pJKF0oo1DT3x82Q-24" value="" style="shape=tableRow;horizontal=0;startSize=0;swimlaneHead=0;swimlaneBody=0;fillColor=none;collapsible=0;dropTarget=0;points=[[0,0.5],[1,0.5]];portConstraint=eastwest;top=0;left=0;right=0;bottom=1;" vertex="1" parent="U8Ca9pJKF0oo1DT3x82Q-23">
          <mxGeometry width="120" height="20" as="geometry" />
        </mxCell>
        <mxCell id="U8Ca9pJKF0oo1DT3x82Q-25" value="has an" style="shape=partialRectangle;connectable=0;fillColor=none;top=0;left=0;bottom=0;right=0;fontStyle=1;overflow=hidden;whiteSpace=wrap;html=1;" vertex="1" parent="U8Ca9pJKF0oo1DT3x82Q-24">
          <mxGeometry width="140" height="20" as="geometry">
            <mxRectangle width="140" height="20" as="alternateBounds" />
          </mxGeometry>
        </mxCell>
        <mxCell id="U8Ca9pJKF0oo1DT3x82Q-26" value="" style="shape=partialRectangle;connectable=0;fillColor=none;top=0;left=0;bottom=0;right=0;align=left;spacingLeft=6;fontStyle=5;overflow=hidden;whiteSpace=wrap;html=1;" vertex="1" parent="U8Ca9pJKF0oo1DT3x82Q-24">
          <mxGeometry x="140" width="-20" height="20" as="geometry">
            <mxRectangle width="-20" height="20" as="alternateBounds" />
          </mxGeometry>
        </mxCell>
        <mxCell id="U8Ca9pJKF0oo1DT3x82Q-27" value="Patient" style="swimlane;fontStyle=1;align=center;verticalAlign=top;childLayout=stackLayout;horizontal=1;startSize=26;horizontalStack=0;resizeParent=1;resizeParentMax=0;resizeLast=0;collapsible=1;marginBottom=0;whiteSpace=wrap;html=1;" vertex="1" parent="1">
          <mxGeometry x="40" y="-400" width="270" height="300" as="geometry" />
        </mxCell>
        <mxCell id="U8Ca9pJKF0oo1DT3x82Q-28" value="+ name: String&lt;div&gt;+ age: String&lt;/div&gt;&lt;div&gt;+ contact: String&lt;/div&gt;&lt;div&gt;+ reasons: array&lt;/div&gt;&lt;div&gt;+ appointments: list&lt;/div&gt;" style="text;strokeColor=none;fillColor=none;align=left;verticalAlign=top;spacingLeft=4;spacingRight=4;overflow=hidden;rotatable=0;points=[[0,0.5],[1,0.5]];portConstraint=eastwest;whiteSpace=wrap;html=1;" vertex="1" parent="U8Ca9pJKF0oo1DT3x82Q-27">
          <mxGeometry y="26" width="270" height="84" as="geometry" />
        </mxCell>
        <mxCell id="U8Ca9pJKF0oo1DT3x82Q-29" value="" style="line;strokeWidth=1;fillColor=none;align=left;verticalAlign=middle;spacingTop=-1;spacingLeft=3;spacingRight=3;rotatable=0;labelPosition=right;points=[];portConstraint=eastwest;strokeColor=inherit;" vertex="1" parent="U8Ca9pJKF0oo1DT3x82Q-27">
          <mxGeometry y="110" width="270" height="8" as="geometry" />
        </mxCell>
        <mxCell id="U8Ca9pJKF0oo1DT3x82Q-30" value="+ Patient(name: String, department: String, reason: String): void&lt;div&gt;+ setReason(reason String): void&lt;/div&gt;&lt;div&gt;+ getReason(visitCount int): String&lt;/div&gt;&lt;div&gt;+ setAge(age String): void&lt;/div&gt;&lt;div&gt;+ g&lt;span style=&quot;background-color: transparent; color: light-dark(rgb(0, 0, 0), rgb(255, 255, 255));&quot;&gt;etAge(): String&lt;/span&gt;&lt;/div&gt;&lt;div&gt;&lt;span style=&quot;background-color: transparent; color: light-dark(rgb(0, 0, 0), rgb(255, 255, 255));&quot;&gt;+ setName(name: String): void&lt;/span&gt;&lt;/div&gt;&lt;div&gt;&lt;span style=&quot;background-color: transparent; color: light-dark(rgb(0, 0, 0), rgb(255, 255, 255));&quot;&gt;+ getName(): String&lt;/span&gt;&lt;/div&gt;&lt;div&gt;&lt;span style=&quot;background-color: transparent; color: light-dark(rgb(0, 0, 0), rgb(255, 255, 255));&quot;&gt;+ scheduleAppointment(doctorName: String): void&lt;/span&gt;&lt;/div&gt;&lt;div&gt;&lt;span style=&quot;background-color: transparent; color: light-dark(rgb(0, 0, 0), rgb(255, 255, 255));&quot;&gt;+ getAppointment(): String&lt;/span&gt;&lt;/div&gt;" style="text;strokeColor=none;fillColor=none;align=left;verticalAlign=top;spacingLeft=4;spacingRight=4;overflow=hidden;rotatable=0;points=[[0,0.5],[1,0.5]];portConstraint=eastwest;whiteSpace=wrap;html=1;" vertex="1" parent="U8Ca9pJKF0oo1DT3x82Q-27">
          <mxGeometry y="118" width="270" height="182" as="geometry" />
        </mxCell>
        <mxCell id="U8Ca9pJKF0oo1DT3x82Q-41" value="" style="endArrow=block;startArrow=block;endFill=1;startFill=1;html=1;rounded=0;exitX=0.537;exitY=1;exitDx=0;exitDy=0;exitPerimeter=0;entryX=0.5;entryY=0;entryDx=0;entryDy=0;" edge="1" parent="1" source="U8Ca9pJKF0oo1DT3x82Q-14" target="U8Ca9pJKF0oo1DT3x82Q-27">
          <mxGeometry width="160" relative="1" as="geometry">
            <mxPoint x="128.11000000000013" y="-464.02" as="sourcePoint" />
            <mxPoint x="560" y="-616" as="targetPoint" />
            <Array as="points" />
          </mxGeometry>
        </mxCell>
        <mxCell id="U8Ca9pJKF0oo1DT3x82Q-42" value="consults" style="text;html=1;align=center;verticalAlign=middle;whiteSpace=wrap;rounded=0;rotation=0;" vertex="1" parent="1">
          <mxGeometry x="180" y="-440" width="60" height="30" as="geometry" />
        </mxCell>
        <mxCell id="U8Ca9pJKF0oo1DT3x82Q-43" value="PatientQueue" style="swimlane;fontStyle=1;align=center;verticalAlign=top;childLayout=stackLayout;horizontal=1;startSize=26;horizontalStack=0;resizeParent=1;resizeParentMax=0;resizeLast=0;collapsible=1;marginBottom=0;whiteSpace=wrap;html=1;" vertex="1" parent="1">
          <mxGeometry x="800" y="-680" width="270" height="188" as="geometry" />
        </mxCell>
        <mxCell id="U8Ca9pJKF0oo1DT3x82Q-44" value="+ myQueue: array&lt;div&gt;+ count: int&lt;/div&gt;" style="text;strokeColor=none;fillColor=none;align=left;verticalAlign=top;spacingLeft=4;spacingRight=4;overflow=hidden;rotatable=0;points=[[0,0.5],[1,0.5]];portConstraint=eastwest;whiteSpace=wrap;html=1;" vertex="1" parent="U8Ca9pJKF0oo1DT3x82Q-43">
          <mxGeometry y="26" width="270" height="44" as="geometry" />
        </mxCell>
        <mxCell id="U8Ca9pJKF0oo1DT3x82Q-45" value="" style="line;strokeWidth=1;fillColor=none;align=left;verticalAlign=middle;spacingTop=-1;spacingLeft=3;spacingRight=3;rotatable=0;labelPosition=right;points=[];portConstraint=eastwest;strokeColor=inherit;" vertex="1" parent="U8Ca9pJKF0oo1DT3x82Q-43">
          <mxGeometry y="70" width="270" height="8" as="geometry" />
        </mxCell>
        <mxCell id="U8Ca9pJKF0oo1DT3x82Q-46" value="+ add(patient:Patient, status: Status): void&lt;div&gt;+ remove(): Patient&lt;/div&gt;&lt;div&gt;+ getQueue: array&lt;/div&gt;" style="text;strokeColor=none;fillColor=none;align=left;verticalAlign=top;spacingLeft=4;spacingRight=4;overflow=hidden;rotatable=0;points=[[0,0.5],[1,0.5]];portConstraint=eastwest;whiteSpace=wrap;html=1;" vertex="1" parent="U8Ca9pJKF0oo1DT3x82Q-43">
          <mxGeometry y="78" width="270" height="110" as="geometry" />
        </mxCell>
        <mxCell id="U8Ca9pJKF0oo1DT3x82Q-51" value="Admin" style="swimlane;fontStyle=1;align=center;verticalAlign=top;childLayout=stackLayout;horizontal=1;startSize=26;horizontalStack=0;resizeParent=1;resizeParentMax=0;resizeLast=0;collapsible=1;marginBottom=0;whiteSpace=wrap;html=1;" vertex="1" parent="1">
          <mxGeometry x="330" y="-980" width="280" height="128" as="geometry" />
        </mxCell>
        <mxCell id="U8Ca9pJKF0oo1DT3x82Q-52" value="+&amp;nbsp;&lt;u style=&quot;background-color: transparent; color: light-dark(rgb(0, 0, 0), rgb(255, 255, 255));&quot;&gt;listOfDoctors: array&lt;/u&gt;&lt;div&gt;+ &lt;u&gt;listOfPatients: PatientQueue&lt;/u&gt;&lt;u style=&quot;background-color: transparent; color: light-dark(rgb(0, 0, 0), rgb(255, 255, 255));&quot;&gt;&lt;/u&gt;&lt;/div&gt;" style="text;strokeColor=none;fillColor=none;align=left;verticalAlign=top;spacingLeft=4;spacingRight=4;overflow=hidden;rotatable=0;points=[[0,0.5],[1,0.5]];portConstraint=eastwest;whiteSpace=wrap;html=1;" vertex="1" parent="U8Ca9pJKF0oo1DT3x82Q-51">
          <mxGeometry y="26" width="280" height="44" as="geometry" />
        </mxCell>
        <mxCell id="U8Ca9pJKF0oo1DT3x82Q-53" value="" style="line;strokeWidth=1;fillColor=none;align=left;verticalAlign=middle;spacingTop=-1;spacingLeft=3;spacingRight=3;rotatable=0;labelPosition=right;points=[];portConstraint=eastwest;strokeColor=inherit;" vertex="1" parent="U8Ca9pJKF0oo1DT3x82Q-51">
          <mxGeometry y="70" width="280" height="8" as="geometry" />
        </mxCell>
        <mxCell id="U8Ca9pJKF0oo1DT3x82Q-54" value="+ &lt;u&gt;maintain(patient: Patient): void&lt;/u&gt;&lt;div&gt;&lt;u&gt;+ call(): String&lt;/u&gt;&lt;/div&gt;&lt;div&gt;+&amp;nbsp;&lt;/div&gt;" style="text;strokeColor=none;fillColor=none;align=left;verticalAlign=top;spacingLeft=4;spacingRight=4;overflow=hidden;rotatable=0;points=[[0,0.5],[1,0.5]];portConstraint=eastwest;whiteSpace=wrap;html=1;" vertex="1" parent="U8Ca9pJKF0oo1DT3x82Q-51">
          <mxGeometry y="78" width="280" height="50" as="geometry" />
        </mxCell>
        <mxCell id="U8Ca9pJKF0oo1DT3x82Q-55" value="Status" style="swimlane;fontStyle=1;align=center;verticalAlign=top;childLayout=stackLayout;horizontal=1;startSize=26;horizontalStack=0;resizeParent=1;resizeParentMax=0;resizeLast=0;collapsible=1;marginBottom=0;whiteSpace=wrap;html=1;" vertex="1" parent="1">
          <mxGeometry x="940" y="-340" width="160" height="120" as="geometry" />
        </mxCell>
        <mxCell id="U8Ca9pJKF0oo1DT3x82Q-56" value="+ seen: enum&lt;div&gt;+ no-show&lt;span style=&quot;background-color: transparent; color: light-dark(rgb(0, 0, 0), rgb(255, 255, 255));&quot;&gt;: enum&lt;/span&gt;&lt;/div&gt;&lt;div&gt;&lt;span style=&quot;background-color: transparent; color: light-dark(rgb(0, 0, 0), rgb(255, 255, 255));&quot;&gt;+ reschedule&lt;/span&gt;&lt;span style=&quot;background-color: transparent; color: light-dark(rgb(0, 0, 0), rgb(255, 255, 255));&quot;&gt;: enum&lt;/span&gt;&lt;/div&gt;" style="text;strokeColor=none;fillColor=none;align=left;verticalAlign=top;spacingLeft=4;spacingRight=4;overflow=hidden;rotatable=0;points=[[0,0.5],[1,0.5]];portConstraint=eastwest;whiteSpace=wrap;html=1;" vertex="1" parent="U8Ca9pJKF0oo1DT3x82Q-55">
          <mxGeometry y="26" width="160" height="54" as="geometry" />
        </mxCell>
        <mxCell id="U8Ca9pJKF0oo1DT3x82Q-57" value="" style="line;strokeWidth=1;fillColor=none;align=left;verticalAlign=middle;spacingTop=-1;spacingLeft=3;spacingRight=3;rotatable=0;labelPosition=right;points=[];portConstraint=eastwest;strokeColor=inherit;" vertex="1" parent="U8Ca9pJKF0oo1DT3x82Q-55">
          <mxGeometry y="80" width="160" height="8" as="geometry" />
        </mxCell>
        <mxCell id="U8Ca9pJKF0oo1DT3x82Q-58" value="+ method(type): type" style="text;strokeColor=none;fillColor=none;align=left;verticalAlign=top;spacingLeft=4;spacingRight=4;overflow=hidden;rotatable=0;points=[[0,0.5],[1,0.5]];portConstraint=eastwest;whiteSpace=wrap;html=1;" vertex="1" parent="U8Ca9pJKF0oo1DT3x82Q-55">
          <mxGeometry y="88" width="160" height="32" as="geometry" />
        </mxCell>
        <mxCell id="U8Ca9pJKF0oo1DT3x82Q-59" value="Use" style="endArrow=open;endSize=12;dashed=1;html=1;rounded=0;exitX=0.719;exitY=1.009;exitDx=0;exitDy=0;exitPerimeter=0;" edge="1" parent="1" source="U8Ca9pJKF0oo1DT3x82Q-46">
          <mxGeometry width="160" relative="1" as="geometry">
            <mxPoint x="370" y="-230" as="sourcePoint" />
            <mxPoint x="994" y="-350" as="targetPoint" />
            <Array as="points" />
          </mxGeometry>
        </mxCell>
        <mxCell id="U8Ca9pJKF0oo1DT3x82Q-62" value="has&amp;nbsp;" style="html=1;verticalAlign=bottom;endArrow=block;curved=0;rounded=0;entryX=0.389;entryY=1.08;entryDx=0;entryDy=0;entryPerimeter=0;" edge="1" parent="1" source="U8Ca9pJKF0oo1DT3x82Q-15" target="U8Ca9pJKF0oo1DT3x82Q-54">
          <mxGeometry width="80" relative="1" as="geometry">
            <mxPoint x="410" y="-830" as="sourcePoint" />
            <mxPoint x="490" y="-830" as="targetPoint" />
            <Array as="points">
              <mxPoint x="210" y="-690" />
            </Array>
          </mxGeometry>
        </mxCell>
        <mxCell id="U8Ca9pJKF0oo1DT3x82Q-65" value="Use" style="endArrow=open;endSize=12;dashed=1;html=1;rounded=0;" edge="1" parent="1" target="U8Ca9pJKF0oo1DT3x82Q-46">
          <mxGeometry width="160" relative="1" as="geometry">
            <mxPoint x="320" y="-320" as="sourcePoint" />
            <mxPoint x="910" y="-426" as="targetPoint" />
            <Array as="points" />
          </mxGeometry>
        </mxCell>
      </root>
    </mxGraphModel>
  </diagram>
</mxfile>
